HIERARCHY
ROOT Hips
{
	OFFSET 0.000000 0.000000 0.000000
	CHANNELS 6 Xposition Yposition Zposition Zrotation Yrotation Xrotation 
	JOINT LHipJoint
	{
		OFFSET 0.000000 0.000000 0.000000
		CHANNELS 3 Zrotation Yrotation Xrotation
		JOINT LeftUpLeg
		{
			OFFSET 1.363060 -1.794630 0.839290
			CHANNELS 3 Zrotation Yrotation Xrotation
			JOINT LeftLeg
			{
				OFFSET 2.448110 -6.726130 0.000000
				CHANNELS 3 Zrotation Yrotation Xrotation
				JOINT LeftFoot
				{
					OFFSET 2.562200 -7.039590 0.000000
					CHANNELS 3 Zrotation Yrotation Xrotation
					JOINT LeftToeBase
					{
						OFFSET 0.157640 -0.433110 2.322550
						CHANNELS 3 Zrotation Yrotation Xrotation
						End Site
						{
							OFFSET 0.000000 0.000000 0.000000
						}
					}
				}
			}
		}
	}
	JOINT RHipJoint
	{
		OFFSET 0.000000 0.000000 0.000000
		CHANNELS 3 Zrotation Yrotation Xrotation
		JOINT RightUpLeg
		{
			OFFSET -1.305520 -1.794630 0.839290
			CHANNELS 3 Zrotation Yrotation Xrotation
			JOINT RightLeg
			{
				OFFSET -2.542530 -6.985550 0.000000
				CHANNELS 3 Zrotation Yrotation Xrotation
				JOINT RightFoot
				{
					OFFSET -2.568260 -7.056230 0.000000
					CHANNELS 3 Zrotation Yrotation Xrotation
					JOINT RightToeBase
					{
						OFFSET -0.164730 -0.452590 2.363150
						CHANNELS 3 Zrotation Yrotation Xrotation
						End Site
						{
							OFFSET 0.000000 0.000000 0.000000
						}
					}
				}
			}
		}
	}
	JOINT LowerBack
	{
		OFFSET 0.000000 0.000000 0.000000
		CHANNELS 3 Zrotation Yrotation Xrotation
		JOINT Spine
		{
			OFFSET 0.028270 2.035590 -0.193380
			CHANNELS 3 Zrotation Yrotation Xrotation
			JOINT Spine1
			{
				OFFSET 0.056720 2.048850 -0.042750
				CHANNELS 3 Zrotation Yrotation Xrotation
				JOINT Neck
				{
					OFFSET 0.000000 0.000000 0.000000
					CHANNELS 3 Zrotation Yrotation Xrotation
					JOINT Neck1
					{
						OFFSET -0.054170 1.746240 0.172020
						CHANNELS 3 Zrotation Yrotation Xrotation
						JOINT Head
						{
							OFFSET 0.104070 1.761360 -0.123970
							CHANNELS 3 Zrotation Yrotation Xrotation
							End Site
							{
								OFFSET 0.000000 0.000000 0.000000
							}
						}
					}
				}
				JOINT LeftShoulder
				{
					OFFSET 0.000000 0.000000 0.000000
					CHANNELS 3 Zrotation Yrotation Xrotation
					JOINT LeftArm
					{
						OFFSET 3.362410 1.200890 -0.311210
						CHANNELS 3 Zrotation Yrotation Xrotation
						JOINT LeftForeArm
						{
							OFFSET 4.983000 -0.000000 -0.000000
							CHANNELS 3 Zrotation Yrotation Xrotation
							JOINT LeftHand
							{
								OFFSET 3.483560 -0.000000 -0.000000
								CHANNELS 3 Zrotation Yrotation Xrotation
								JOINT LeftFingerBase
								{
									OFFSET 0.000000 0.000000 0.000000
									CHANNELS 3 Zrotation Yrotation Xrotation
									JOINT LeftHandIndex1
									{
										OFFSET 0.715260 -0.000000 -0.000000
										CHANNELS 3 Zrotation Yrotation Xrotation
										End Site
										{
											OFFSET 0.000000 0.000000 0.000000
										}
									}
								}
								JOINT LThumb
								{
									OFFSET 0.000000 0.000000 0.000000
									CHANNELS 3 Zrotation Yrotation Xrotation
									End Site
									{
										OFFSET 0.000000 0.000000 0.000000
									}
								}
							}
						}
					}
				}
				JOINT RightShoulder
				{
					OFFSET 0.000000 0.000000 0.000000
					CHANNELS 3 Zrotation Yrotation Xrotation
					JOINT RightArm
					{
						OFFSET -3.136600 1.374050 -0.404650
						CHANNELS 3 Zrotation Yrotation Xrotation
						JOINT RightForeArm
						{
							OFFSET -5.241900 -0.000000 -0.000000
							CHANNELS 3 Zrotation Yrotation Xrotation
							JOINT RightHand
							{
								OFFSET -3.444170 -0.000000 -0.000000
								CHANNELS 3 Zrotation Yrotation Xrotation
								JOINT RightFingerBase
								{
									OFFSET 0.000000 0.000000 0.000000
									CHANNELS 3 Zrotation Yrotation Xrotation
									JOINT RightHandIndex1
									{
										OFFSET -0.622530 -0.000000 -0.000000
										CHANNELS 3 Zrotation Yrotation Xrotation
										End Site
										{
											OFFSET 0.000000 0.000000 0.000000
										}
									}
								}
								JOINT RThumb
								{
									OFFSET 0.000000 0.000000 0.000000
									CHANNELS 3 Zrotation Yrotation Xrotation
									End Site
									{
										OFFSET 0.000000 0.000000 0.000000
									}
								}
							}
						}
					}
				}
			}
		}
	}
}
MOTION
Frames: 6
Frame Time: 0.008333
0.636069 18.444424 9.706024 -11.842830 -2.613888 11.458204 7.231320 5.094799 0.294156 -15.144095 -38.671981 14.661277 -3.810286 -2.205686 -1.458293 -13.374012 41.970479 -28.897381 0.467200 4.383900 12.159300 0.593984 -4.118738 1.742523 24.475461 21.751822 -4.751997 2.996897 -3.053778 9.264247 5.697664 -18.876782 -0.450684 -0.014000 0.763300 -2.097800 -4.136806 3.542617 1.336725 27.852674 6.379076 -3.850698 -11.087077 -0.326704 -14.649212 -8.554345 -5.810922 -27.714451 10.928288 -7.983626 42.033149 1.764400 -1.491700 12.826000 -8.150879 -6.606064 1.435387 -72.862403 -12.154966 39.211990 92.210865 -57.131172 -70.473240 -1.571779 0.070439 22.585958 19.028515 -23.015171 -8.057700 -7.125000 0.000000 0.000000 -5.251400 6.468500 4.646400 7.736160 9.884040 4.250308 56.335547 38.517446 72.401537 -63.505564 50.360496 -39.170476 -0.926961 1.742065 21.704141 19.538980 -23.495504 -9.100500 7.125000 0.000000 0.000000 47.573400 -48.604100 -5.374200 
0.636911 18.444740 9.708129 -11.897974 -2.611231 11.469730 7.260168 5.085998 0.268751 -15.022024 -38.471585 14.503633 -3.804020 -2.187839 -1.415845 -13.333302 41.835409 -28.682721 0.466700 4.381900 12.153600 0.616522 -4.119198 1.732263 24.515368 21.707759 -4.712016 3.003875 -3.026845 9.187484 5.700322 -18.899064 -0.405269 -0.015400 0.800500 -2.200000 -4.132794 3.554031 1.359203 28.073384 6.451696 -4.100503 -11.152069 -0.346191 -14.539572 -8.402093 -5.735781 -27.582185 10.722032 -7.850115 41.992189 1.715900 -1.453100 12.805500 -8.187979 -6.632172 1.437422 -72.584534 -12.220528 39.539229 89.873651 -56.852376 -68.495833 -1.551787 0.094781 22.704255 18.580730 -22.979099 -7.864500 -7.125000 0.000000 0.000000 -5.539600 6.538900 4.896200 7.689867 9.912560 4.272601 56.338844 38.373305 72.396605 -63.471337 50.359428 -39.138338 -0.928394 1.742017 21.732153 19.676314 -23.389971 -9.128800 7.125000 0.000000 0.000000 47.598100 -48.501600 -5.230900 
0.636069 18.442425 9.710023 -11.892214 -2.628343 11.316503 7.262600 5.110769 0.317859 -15.061560 -38.359410 14.546773 -3.803523 -2.175894 -1.362250 -13.269972 41.698712 -28.613950 0.480200 4.443900 12.328900 0.620862 -4.142341 1.783620 24.544794 21.690241 -4.539496 3.011481 -2.984278 9.100833 5.756164 -19.046560 -0.399981 -0.020300 0.920200 -2.529400 -4.036829 3.508502 1.197796 28.126293 6.309286 -3.625921 -11.186259 -0.378494 -14.640369 -8.239598 -5.673527 -27.744088 10.576199 -7.726866 41.956009 1.681100 -1.407800 12.803800 -8.232007 -6.631865 1.378218 -72.118496 -12.278879 40.136516 87.096006 -56.465077 -66.081928 -1.501860 0.132621 22.831920 17.794649 -22.964839 -7.538300 -7.125000 0.000000 0.000000 -6.058600 6.607100 5.352000 7.675422 9.919159 4.244867 56.354814 38.414164 72.455325 -63.570629 50.380946 -39.229225 -0.932494 1.743424 21.458313 19.958415 -23.711381 -9.372100 7.125000 0.000000 0.000000 48.059500 -48.699400 -5.598900 
0.635438 18.439794 9.711391 -11.846376 -2.661572 11.120856 7.259359 5.146089 0.392976 -15.186998 -38.300924 14.671897 -3.804960 -2.176032 -1.330167 -13.252856 41.653248 -28.567165 0.478900 4.438000 12.312400 0.622608 -4.169795 1.860107 24.526760 21.682637 -4.376128 3.013684 -2.958141 9.067849 5.796537 -19.138742 -0.405540 -0.019800 0.907700 -2.494900 -3.980130 3.452329 0.956035 28.163754 6.090498 -2.864219 -11.168559 -0.408092 -14.827418 -8.023518 -5.634108 -28.109224 10.294395 -7.583548 42.012239 1.611000 -1.368800 12.855000 -8.278998 -6.611494 1.302432 -71.676224 -12.229133 40.812509 84.949906 -56.127995 -64.176762 -1.437324 0.157358 22.762672 16.897357 -22.853249 -7.131600 -7.125000 0.000000 0.000000 -6.650700 6.788800 5.858500 7.648573 9.922266 4.194706 56.334051 38.511742 72.469396 -63.629940 50.389063 -39.275857 -0.933398 1.745045 21.261679 20.087440 -23.924371 -9.507300 7.125000 0.000000 0.000000 48.323400 -48.840900 -5.854500 
0.635438 18.436953 9.711812 -11.807945 -2.670396 10.930025 7.264129 5.172162 0.464849 -15.178874 -38.018293 14.592591 -3.796940 -2.169684 -1.285577 -13.236690 41.512195 -28.169646 0.459000 4.345800 12.051700 0.627927 -4.192163 1.939124 24.499755 21.629951 -4.279671 3.010838 -2.953840 9.092018 5.803733 -19.135311 -0.432201 -0.018600 0.880800 -2.420800 -3.971955 3.380470 0.747361 28.272804 5.836293 -2.076277 -11.137643 -0.453465 -15.053546 -7.827599 -5.581382 -28.459673 10.052302 -7.422569 41.968224 1.556400 -1.320100 12.879900 -8.307384 -6.572637 1.227913 -71.391098 -11.978963 41.217678 84.138760 -56.006669 -63.450292 -1.401898 0.164965 22.553683 16.348911 -22.770267 -6.880300 -7.125000 0.000000 0.000000 -7.010200 6.917700 6.162300 7.595939 9.920140 4.138832 56.342649 38.614896 72.485439 -63.648485 50.388077 -39.281810 -0.932678 1.744951 21.223594 20.087042 -23.897201 -9.497600 7.125000 0.000000 0.000000 48.302400 -48.822400 -5.823400 
0.635227 18.434112 9.712233 -11.799961 -2.665887 10.793453 7.276690 5.187587 0.520645 -15.092373 -37.681952 14.430173 -3.787013 -2.164301 -1.247030 -13.216520 41.349592 -27.720512 0.438500 4.249400 11.779300 0.638253 -4.204735 2.003681 24.488939 21.526667 -4.275412 3.003931 -2.968808 9.153187 5.789834 -19.083691 -0.423727 -0.023300 0.986300 -2.711100 -3.994316 3.307730 0.590849 28.455954 5.604293 -1.427810 -11.140333 -0.507481 -15.243972 -7.821688 -5.529927 -28.632649 10.126013 -7.315879 41.626063 1.591500 -1.268100 12.803000 -8.301029 -6.533946 1.166634 -71.359117 -11.603691 41.170299 84.722696 -56.129319 -63.982491 -1.410634 0.159383 22.251185 16.255675 -22.795781 -6.852300 -7.125000 0.000000 0.000000 -7.065400 6.905000 6.213400 7.534302 9.911120 4.082925 56.346798 38.690259 72.509082 -63.699663 50.395756 -39.318573 -0.931198 1.742894 21.272358 19.936103 -23.793059 -9.389000 7.125000 0.000000 0.000000 48.105500 -48.768700 -5.708300 
